<?xml version="1.0" standalone="no"?>
<!DOCTYPE svg PUBLIC "-//W3C//DTD SVG 20010904//EN"
 "http://www.w3.org/TR/2001/REC-SVG-20010904/DTD/svg10.dtd">
<svg version="1.0" xmlns="http://www.w3.org/2000/svg"
 width="347.000000pt" height="347.000000pt" viewBox="0 0 347.000000 347.000000"
 preserveAspectRatio="xMidYMid meet">
<metadata>
Created by potrace 1.14, written by Peter Selinger 2001-2017
</metadata>
<g transform="translate(0.000000,347.000000) scale(0.100000,-0.100000)"
fill="#000000" stroke="none">
<path d="M2156 3064 c-3 -9 -3 -21 0 -26 4 -6 9 -29 11 -52 6 -57 43 -278 50
-296 11 -28 10 -50 -4 -61 -7 -6 -13 -18 -13 -27 0 -8 -2 -13 -5 -10 -8 7
-275 -257 -275 -271 0 -6 6 -11 13 -12 6 0 20 -2 30 -4 29 -6 143 -23 267 -42
90 -13 119 -21 132 -37 10 -12 17 -27 18 -33 0 -7 4 -13 10 -13 5 0 7 -7 4
-15 -4 -8 1 -17 10 -21 9 -3 13 -10 10 -15 -3 -5 2 -16 10 -25 9 -9 14 -19 11
-24 -3 -4 2 -13 10 -20 8 -7 12 -16 9 -21 -3 -5 0 -9 6 -9 6 0 9 -4 5 -10 -3
-5 2 -17 12 -27 10 -10 18 -22 18 -28 1 -18 40 -95 48 -95 4 0 5 -4 2 -10 -3
-5 -2 -10 2 -10 14 0 34 40 27 52 -4 6 -3 8 3 5 10 -6 38 47 34 66 0 4 4 7 10
7 5 0 7 5 4 10 -3 6 -1 10 5 10 7 0 9 7 6 17 -4 10 -4 14 0 10 8 -8 44 56 44
78 0 8 5 15 11 15 5 0 7 5 4 10 -3 6 -1 10 5 10 6 0 9 4 6 9 -4 5 -3 11 1 13
5 1 17 20 28 42 26 51 37 54 225 72 52 4 136 17 197 30 16 3 34 6 41 6 17 2
-25 46 -60 64 -16 8 -28 22 -28 31 0 9 -3 14 -6 10 -3 -3 -52 41 -109 98 -56
58 -105 102 -108 98 -10 -9 2 89 23 192 10 50 18 97 19 105 1 8 4 33 7 55 3
22 7 52 8 66 2 14 6 31 10 37 10 17 -6 15 -34 -5 -14 -10 -30 -18 -37 -19 -6
-1 -28 -14 -47 -29 -20 -15 -36 -25 -36 -22 0 3 -32 -12 -70 -33 -39 -21 -80
-42 -90 -45 -11 -4 -20 -11 -20 -16 0 -6 -4 -8 -9 -5 -5 3 -14 0 -20 -8 -14
-17 -84 -4 -108 19 -13 14 -21 17 -39 14 -4 0 -10 3 -13 8 -11 16 -64 46 -56
32 5 -8 -3 -5 -16 7 -25 22 -58 38 -71 36 -5 -1 -8 2 -8 7 0 8 -37 24 -52 22
-5 -1 -8 4 -8 9 0 6 -6 10 -14 10 -8 0 -21 7 -29 15 -13 13 -16 13 -21 -1z
m1025 -731 c13 -16 12 -17 -3 -4 -17 13 -22 21 -14 21 2 0 10 -8 17 -17z"/>
<path d="M1959 2155 c-19 -13 -39 -28 -44 -33 -6 -5 -33 -21 -60 -37 -28 -16
-52 -33 -53 -37 -2 -5 -8 -6 -13 -2 -5 3 -9 1 -9 -3 0 -5 -21 -20 -47 -33 -27
-14 -51 -29 -54 -34 -4 -5 -12 -5 -19 -1 -8 5 -11 4 -7 -2 6 -9 -344 -193
-365 -193 -4 0 -35 -13 -70 -28 -35 -16 -99 -41 -143 -56 -44 -15 -89 -32
-100 -37 -12 -6 -27 -11 -35 -13 -8 -1 -31 -7 -50 -14 -19 -6 -48 -13 -65 -16
-16 -3 -61 -13 -100 -21 -38 -9 -83 -18 -98 -20 -15 -2 -47 -15 -70 -28 -46
-27 -95 -67 -82 -67 4 0 3 -6 -3 -12 -17 -23 -24 -75 -13 -115 21 -75 128
-145 189 -122 15 6 29 11 32 11 8 1 45 15 122 49 40 17 78 32 83 33 6 1 20 8
33 14 12 7 22 9 22 5 0 -4 4 -3 8 3 4 6 48 30 97 54 50 25 92 47 95 50 3 3 29
18 58 33 62 32 295 188 336 226 16 14 25 19 21 11 -5 -8 6 0 25 17 18 18 52
45 74 60 23 15 50 37 62 48 11 11 42 38 69 60 27 22 73 64 104 93 30 28 59 52
63 52 5 0 6 5 3 10 -3 6 -2 10 3 10 10 0 112 96 112 105 0 3 -17 5 -38 5 -25
0 -50 -9 -73 -25z"/>
<path d="M2079 2023 c-141 -144 -275 -273 -283 -273 -2 0 -23 -18 -45 -40 -23
-23 -41 -38 -41 -35 0 3 -8 -3 -18 -12 -21 -21 -62 -53 -152 -119 -36 -27 -72
-56 -81 -66 -9 -10 -20 -18 -24 -18 -4 0 -24 -13 -44 -29 -21 -17 -49 -35 -64
-42 -15 -7 -27 -19 -27 -27 0 -9 -3 -13 -6 -9 -6 6 -95 -44 -129 -73 -11 -10
-32 -24 -46 -31 -15 -8 -49 -26 -78 -42 -28 -15 -51 -24 -51 -20 0 4 -6 0 -12
-9 -23 -30 -293 -160 -458 -222 -200 -75 -269 -124 -300 -216 -19 -55 -16 -76
19 -149 18 -38 69 -91 89 -91 6 0 12 -4 12 -8 0 -15 78 -35 111 -28 34 6 147
60 214 101 22 14 54 32 71 40 17 9 40 24 51 33 10 9 28 22 39 28 10 6 30 17
44 25 14 8 27 16 30 19 3 3 46 32 95 65 50 33 95 65 100 71 6 6 42 35 80 64
39 30 79 63 91 75 38 37 136 120 158 132 11 7 17 12 12 13 -5 0 2 9 15 19 40
31 292 289 373 381 29 33 93 109 121 145 17 20 40 50 53 65 12 15 22 32 22 37
0 5 8 15 18 24 9 8 27 28 39 45 12 16 37 50 57 76 19 26 47 66 62 90 15 24 30
45 34 48 3 3 16 22 28 42 23 36 23 37 3 47 -11 6 -26 11 -33 11 -7 0 -74 -62
-149 -137z"/>
<path d="M2320 2007 c-9 -12 -24 -40 -35 -62 -11 -22 -23 -44 -28 -50 -4 -5
-26 -39 -50 -75 -23 -36 -45 -67 -50 -68 -4 -2 -5 -8 -1 -13 3 -5 1 -9 -4 -9
-5 0 -15 -13 -22 -30 -7 -16 -16 -27 -21 -24 -5 2 -11 -7 -15 -21 -3 -14 -17
-34 -31 -45 -13 -10 -23 -20 -21 -22 9 -9 -160 -224 -173 -220 -5 1 -9 -3 -9
-9 0 -35 -334 -375 -435 -443 -21 -14 -46 -36 -56 -47 -11 -12 -19 -19 -19
-15 0 4 -14 -6 -32 -23 -18 -16 -43 -36 -57 -43 -66 -34 -139 -109 -143 -148
0 -3 -4 -15 -9 -28 -11 -29 15 -108 48 -143 13 -15 44 -37 68 -49 42 -21 49
-22 111 -7 7 2 19 9 28 16 9 7 16 10 16 7 0 -9 25 12 58 49 15 16 40 41 56 55
49 42 80 73 116 115 19 22 38 39 42 38 4 -2 8 3 8 11 0 8 12 24 26 35 15 12
24 21 20 21 -4 0 5 11 20 25 15 14 24 25 20 25 -4 0 5 11 19 24 15 14 25 26
23 28 -3 3 46 72 69 95 6 7 33 45 59 85 26 40 53 76 59 80 6 5 6 8 0 8 -7 0
-7 3 0 8 15 11 55 70 55 82 0 5 5 10 10 10 6 0 10 5 10 11 0 6 13 30 29 54 16
24 32 54 36 67 4 12 15 34 25 48 31 45 168 326 185 379 3 12 9 19 13 17 4 -2
8 9 9 25 1 16 10 42 19 58 19 33 14 83 -14 118 l-17 22 -15 -22z"/>
</g>
</svg>
