<?xml version="1.0" encoding="utf-8"?>
<!-- Generator: Adobe Illustrator 27.3.1, SVG Export Plug-In . SVG Version: 6.00 Build 0)  -->
<svg xmlns="http://www.w3.org/2000/svg" xmlns:xlink="http://www.w3.org/1999/xlink" x="0px" y="0px"
	 viewBox="0 0 270.1 270.1" enable-background="new 0 0 270.1 270.1" xml:space="preserve">
<path stroke="currentColor" d="M238.1,270.1H32c-12.1,0-22-9.9-22-22V42c0-12.1,9.9-22,22-22h206.1c12.1,0,22,9.9,22,22v206.1
	C260.1,260.2,250.2,270.1,238.1,270.1z M32,40c-1.1,0-2,0.9-2,2v206.1c0,1.1,0.9,2,2,2h206.1c1.1,0,2-0.9,2-2V42c0-1.1-0.9-2-2-2H32
	z"/>
<path stroke="currentColor" d="M64.1,59.2c-5.5,0-10-4.5-10-10V10.8c0-5.5,4.5-10,10-10s10,4.5,10,10v38.5C74.1,54.8,69.6,59.2,64.1,59.2z"/>
<path stroke="currentColor" d="M206.1,59.2c-5.5,0-10-4.5-10-10V10.8c0-5.5,4.5-10,10-10s10,4.5,10,10v38.5C216.1,54.8,211.6,59.2,206.1,59.2z"/>
<rect stroke="currentColor" x="20" y="85.1" width="230.1" height="20"/>
</svg>
