<?xml version="1.0" encoding="UTF-8"?>
<svg xmlns="http://www.w3.org/2000/svg" viewBox="0 0 270.1 270.1">
  <path fill="currentColor" d="m135.05,270.1C60.58,270.1,0,209.51,0,135.05S60.58,0,135.05,0s135.05,60.58,135.05,135.05-60.58,135.05-135.05,135.05Zm0-250.1c-63.44,0-115.05,51.61-115.05,115.05s51.61,115.05,115.05,115.05,115.05-51.61,115.05-115.05S198.49,20,135.05,20Z"/>
  <path fill="currentColor" d="m135.05,145.05c-5.52,0-10-4.48-10-10V53.06c0-5.52,4.48-10,10-10s10,4.48,10,10v81.99c0,5.52-4.48,10-10,10Z"/>
  <path fill="currentColor" d="m173.52,183.52c-2.56,0-5.12-.98-7.07-2.93l-38.47-38.47c-3.9-3.91-3.9-10.24,0-14.14,3.91-3.91,10.24-3.91,14.14,0l38.47,38.47c3.91,3.91,3.91,10.24,0,14.14-1.95,1.95-4.51,2.93-7.07,2.93Z"/>
</svg>