<?xml version="1.0" encoding="UTF-8"?>
<svg xmlns="http://www.w3.org/2000/svg" viewBox="0 0 232.67 268.65">
  <path fill="currentColor" d="m117.41,268.65c1.64,0,4.53-.78,6.07-1.62,70.94-38.84,95.25-90.42,102.83-112.95l.09.03c4.16-12.13,6.27-24.84,6.27-37.78C232.67,52.19,180.48,0,116.33,0S0,52.19,0,116.33c0,13.67,2.35,27.06,6.99,39.78l.05-.02c8.32,23.46,33.23,73.21,102.13,110.94,1.54.84,4.11,1.62,5.75,1.62m95.4-131.6c-.3.67-.53,1.39-.67,2.14-.03.16-3.26,16.41-16.61,37.99-12.08,19.52-35.15,47.48-76.71,70.82-41.57-23.35-64.63-51.31-76.71-70.82-13.36-21.58-16.58-37.83-16.6-37.95-.14-.75-.36-1.48-.65-2.15-1.5-6.77-2.25-13.71-2.25-20.74,0-53.07,43.18-96.23,96.23-96.23s96.23,43.17,96.23,96.23c0,7.02-.75,13.95-2.24,20.71Z"/>
  <circle cx="116.33" cy="109.68" r="42.99" fill="none" stroke="currentColor" stroke-linecap="round" stroke-miterlimit="10" stroke-width="20"/>
</svg>